<svg version="1.1" xmlns="http://www.w3.org/2000/svg" xmlns:xlink="http://www.w3.org/1999/xlink" width="70.21476" height="58.657" viewBox="0,0,24.21476,48.657"><g transform="translate(-169.55605,-207.96042)"><g data-paper-data="{&quot;isPaintingLayer&quot;:true}" fill-rule="nonzero" stroke-width="1" stroke-linecap="butt" stroke-linejoin="miter" stroke-miterlimit="10" stroke-dasharray="" stroke-dashoffset="0" style="mix-blend-mode: normal"><path d="M176.22987,259.61741c-1.41571,-1.4471 -2.64674,-3.06118 -3.81624,-4.73091c-7.69404,0.55657 -14.34169,-2.94986 -15.26497,-4.67525c-1.10794,-2.05934 8.06334,-9.18352 9.47905,-10.24102c-0.40003,-2.33725 -0.40015,-6.02463 0,-8.36263c-1.41571,-1.0575 -10.58699,-8.18169 -9.47905,-10.24103c0.92328,-1.72539 7.57093,-5.23182 15.26497,-4.67525c1.10794,-1.66973 2.40054,-3.28381 3.75469,-4.73091" fill="#ffbf00" stroke="#cc9900"/><g stroke="none"><g fill="none" font-family="sans-serif" font-weight="normal" font-size="12" text-anchor="start"/><path d="M166.62772,224.70604c-2.58519,-0.94618 -5.60126,-2.5046 -5.23195,-3.22815c0.49242,-0.89052 4.86263,-3.00552 9.47906,-2.78289c0.36932,0 0.43087,0.3896 0.30776,0.61223c-0.98484,1.66973 -1.72347,3.5621 -2.21589,4.78657c-0.30776,0.77921 -1.16949,1.00183 -2.33898,0.61223z" fill="#ffd5e6"/><path d="M168.96671,247.76231c0.49242,1.22447 1.23105,3.11684 2.21589,4.78656c0.12311,0.22263 0.06155,0.61223 -0.30776,0.61223c-4.61642,0.22263 -8.98664,-1.89236 -9.47906,-2.78289c-0.36932,-0.72355 2.64675,-2.28197 5.23195,-3.22815c1.1695,-0.44526 2.03122,-0.22263 2.33898,0.61223z" fill="#ffd5e6"/></g><g stroke="none"><path d="M179.1765,252.84158c-0.39857,0.17045 -0.87687,-0.17044 -0.95659,-0.59655l-0.79716,-3.40887l-1.75375,2.89754c-0.23915,0.42611 -0.71744,0.51133 -1.11602,0.25566c-0.39857,-0.25566 -0.4783,-0.767 -0.23915,-1.19311l3.82635,-5.96552l1.67403,7.0734c0,0 0,0.08523 0,0.17045c0,0.42611 -0.23915,0.767 -0.63773,0.767z" fill-opacity="0" fill="#000000"/><path d="M179.81422,220.37214c0,0.08522 0,0.17044 0,0.17044l-1.67403,7.0734l-3.82635,-5.96552c-0.23915,-0.42611 -0.15942,-0.93743 0.23915,-1.1931c0.39857,-0.25566 0.87687,-0.17045 1.11602,0.25566l1.83346,2.89754l0.79715,-3.40886c0.07971,-0.42611 0.55802,-0.767 0.95659,-0.59655c0.31886,0.08522 0.55801,0.42611 0.55801,0.767z" fill-opacity="0" fill="#000000"/><path d="M178.06048,225.99676c-1.49688,0 -2.71033,-1.29727 -2.71033,-2.89754c0,-1.60027 1.21345,-2.89753 2.71033,-2.89753c1.49688,0 2.71034,1.29727 2.71034,2.89753c0,1.60027 -1.21346,2.89754 -2.71034,2.89754z" fill-opacity="0.6" fill="#000000"/><path d="M178.06048,251.64847c-1.49688,0 -2.71033,-1.29727 -2.71033,-2.89754c0,-1.60027 1.21345,-2.89754 2.71033,-2.89754c1.49688,0 2.71034,1.29727 2.71034,2.89754c0,1.60027 -1.21346,2.89754 -2.71034,2.89754z" fill-opacity="0.6" fill="#000000"/><path d="M180.77081,234.68937c0,0.767 -0.23915,1.44877 -0.71744,1.9601c0.47829,0.51133 0.71744,1.10788 0.71744,1.87488c0,0.767 -0.23915,1.53399 -0.71744,1.9601c-0.87688,0.85222 -2.07261,0.93743 -2.23204,0.93743c-0.39857,0 -0.79716,-0.42611 -0.79716,-0.85222v0c0,-0.51133 0.39858,-0.85222 0.79716,-0.85222c0.31886,0 1.35516,-0.08523 1.35516,-1.19311c0,-0.42611 -0.15943,-0.59655 -0.23914,-0.68177c-0.23915,-0.25566 -0.79716,-0.34089 -1.0363,-0.34089c-0.07971,0 -0.07972,0 -0.15943,0c-0.39857,0 -0.79716,-0.42611 -0.79716,-0.85222v0c0,-0.42611 0.31887,-0.85222 0.79716,-0.85222c0,0 0.07972,0 0.15943,0c0.23915,0 0.71744,-0.08523 0.95659,-0.34089c0.07971,-0.08522 0.23915,-0.25566 0.23915,-0.68177c0,-0.42611 -0.15943,-0.59655 -0.23915,-0.68177c-0.31886,-0.25566 -0.87688,-0.34088 -1.0363,-0.25566c-0.39857,0 -0.79716,-0.34089 -0.87687,-0.767c0,-0.42611 0.31887,-0.85222 0.71744,-0.93743c0.15943,0 1.43488,-0.08523 2.23203,0.68177c0.47829,0.25566 0.87688,0.85222 0.87688,1.87488z" fill-opacity="0.6" fill="#000000"/></g></g></g></svg>