<svg version="1.1" xmlns="http://www.w3.org/2000/svg" xmlns:xlink="http://www.w3.org/1999/xlink" width="23.15656" height="21.35894" viewBox="0,0,23.15656,21.35894"><g transform="translate(-229.21493,-168.74472)"><g data-paper-data="{&quot;isPaintingLayer&quot;:true}" fill="#a338ff" fill-rule="evenodd" stroke="#6229e1" stroke-width="0.5625" stroke-linecap="butt" stroke-linejoin="miter" stroke-miterlimit="10" stroke-dasharray="" stroke-dashoffset="0" style="mix-blend-mode: normal"><path d="M244.00193,168.97611c0.1037,-0.07165 0.27652,-0.03582 0.31109,0.10747l0.8987,3.83315c0,0 2.21219,1.68372 2.86893,2.86591c1.10609,1.97031 1.14066,3.58239 1.14066,3.58239c0,0 2.45415,0.7523 2.86893,2.79426c0.41479,2.04196 -1.10609,5.91094 -7.6044,7.23642c-6.4983,1.32548 -11.71769,-0.50153 -14.17183,-4.58545c-2.45415,-4.08392 1.41718,-8.95596 1.20979,-8.66937l-0.72587,-6.41247c-0.03457,-0.1433 0.13826,-0.25077 0.27652,-0.17912l4.18242,2.83008c0,0 1.55545,-0.60901 3.18002,-0.68065c0.96783,-0.07165 1.7974,0 2.59241,0.1433z"/></g></g></svg>