<svg version="1.1" xmlns="http://www.w3.org/2000/svg" xmlns:xlink="http://www.w3.org/1999/xlink" width="23.13363" height="23.03943" viewBox="0,0,23.13363,23.03943"><g transform="translate(-228.62092,-168.48029)"><g data-paper-data="{&quot;isPaintingLayer&quot;:true}" stroke-linejoin="miter" stroke-miterlimit="10" stroke-dasharray="" stroke-dashoffset="0" style="mix-blend-mode: normal"><path d="M243.60585,169.59264c0.10087,-0.0674 0.26897,-0.0337 0.3026,0.1011l0.87416,3.60603c0,0 2.15179,1.58396 2.79059,2.6961c1.07589,1.85356 1.10951,3.37013 1.10951,3.37013c0,0 2.38714,0.70772 2.79059,2.62869c0.40346,1.92097 -1.07589,5.5607 -7.39676,6.80765c-6.32087,1.24694 -11.39774,-0.47181 -13.78487,-4.31375c-2.38714,-3.84194 1.37848,-8.4253 1.17676,-8.15569l-0.70605,-6.03252c-0.03363,-0.13481 0.13448,-0.23591 0.26897,-0.16851l4.06822,2.66239c0,0 1.51298,-0.57292 3.09319,-0.64032c0.9414,-0.0674 1.74832,0 2.52162,0.13481z" fill="#a338ff" fill-rule="evenodd" stroke="#6229e1" stroke-width="0.5625" stroke-linecap="butt"/><path d="M249.62909,170.23029l-19.25817,19.53943" data-paper-data="{&quot;index&quot;:null}" fill="none" fill-rule="nonzero" stroke="#a8114a" stroke-width="3.5" stroke-linecap="round"/><path d="M230.37091,189.76971l19.25817,-19.53943" data-paper-data="{&quot;index&quot;:null}" fill="none" fill-rule="nonzero" stroke="#ffffff" stroke-width="2.37575" stroke-linecap="round"/></g></g></svg>