<svg version="1.1" xmlns="http://www.w3.org/2000/svg" xmlns:xlink="http://www.w3.org/1999/xlink" width="33.44418" height="33.5506" viewBox="0,0,33.44418,33.5506"><g transform="translate(-223.27791,-163.22469)"><g data-paper-data="{&quot;isPaintingLayer&quot;:true}" fill-rule="nonzero" stroke="none" stroke-width="1" stroke-linecap="butt" stroke-linejoin="miter" stroke-miterlimit="10" stroke-dasharray="" stroke-dashoffset="0" style="mix-blend-mode: normal"><path d="M225.41172,196.21449c-0.89654,0 -1.62334,-0.7004 -1.62334,-1.56438v-29.15256c0.01672,-0.98828 0.85291,-1.78097 1.87858,-1.78083h28.63543c1.03752,0 1.87858,0.81052 1.87858,1.81035v29.1132c0.00028,0.85428 -0.70651,1.55287 -1.59271,1.57422z" data-paper-data="{&quot;index&quot;:null}" fill="#cad0d7"/><path d="M254.3024,164.20866h-28.63543c-0.75327,0.00536 -1.36253,0.5925 -1.3681,1.31841v29.12304c0.00554,0.59007 0.50055,1.06709 1.11285,1.07244h29.17654c0.60432,-0.01586 1.08716,-0.48988 1.09244,-1.07244v-29.12304c0,-0.72814 -0.61252,-1.31841 -1.3681,-1.31841M254.31261,163.22477v0c0.63714,-0.00525 1.25007,0.23499 1.70253,0.66733c0.45246,0.43233 0.70697,1.02093 0.70695,1.63496v29.19191c-0.00558,1.13344 -0.95767,2.05094 -2.13382,2.05632h-29.17654c-1.17615,-0.00538 -2.12823,-0.92289 -2.13382,-2.05632v-29.19191c0,-1.27153 1.06962,-2.30229 2.38906,-2.30229h28.63543z" data-paper-data="{&quot;index&quot;:null}" fill="#445771"/><path d="M255.67049,194.65011c-0.00554,0.5955 -0.50512,1.07693 -1.12306,1.08228h-29.1357c-0.61626,-0.0054 -1.11287,-0.48837 -1.11285,-1.08228l2.52446,-2.71708h23.80198c0.61794,-0.00534 1.11752,-0.48678 1.12306,-1.08228v-22.72264c0,0 3.51924,-3.54539 3.53525,-3.52983c0.25687,0.24939 0.3998,0.58725 0.39707,0.93862z" data-paper-data="{&quot;index&quot;:null}" fill="#81909c"/><path d="M228.24085,192.9294c-0.72343,0 -1.3099,-0.55731 -1.3099,-1.24479v-23.19698c0.0135,-0.78639 0.68822,-1.41714 1.51585,-1.41703h23.10638c0.83719,0 1.51585,0.64494 1.51585,1.44052v23.16567c0.00022,0.67976 -0.5701,1.23563 -1.28518,1.25262z" data-paper-data="{&quot;index&quot;:null}" fill="#e7eaed"/><text transform="translate(233.45226,187.59072) scale(0.54253,0.5)" font-size="40" xml:space="preserve" data-paper-data="{&quot;index&quot;:null}" fill="#1d1426" fill-rule="nonzero" stroke="none" stroke-width="1" stroke-linecap="butt" stroke-linejoin="miter" stroke-miterlimit="10" stroke-dasharray="" stroke-dashoffset="0" font-family="&quot;ヒラギノ角ゴ Pro W3&quot;, &quot;Hiragino Kaku Gothic Pro&quot;, Osaka, &quot;メイリオ&quot;, Meiryo, &quot;ＭＳ Ｐゴシック&quot;, &quot;MS PGothic&quot;" font-weight="normal" text-anchor="start" style="mix-blend-mode: normal"><tspan x="0" dy="0">a</tspan></text></g></g></svg>