<svg version="1.1" xmlns="http://www.w3.org/2000/svg" xmlns:xlink="http://www.w3.org/1999/xlink" width="21.87535" height="28.04062" viewBox="0,0,21.87535,28.04062"><g transform="translate(-229.4258,-166.50017)"><g data-paper-data="{&quot;isPaintingLayer&quot;:true}" fill="#ffffff" fill-rule="nonzero" stroke-linecap="round" stroke-linejoin="miter" stroke-miterlimit="10" stroke-dasharray="" stroke-dashoffset="0" style="mix-blend-mode: normal"><path d="M249.30105,184.73149c0.03125,0.03279 -7.4179,0 -7.4179,0c0,0 2.61699,4.9588 2.62785,4.98143c0.61629,1.28435 0.04974,2.57572 -0.83997,3.13229c-0.96775,0.60538 -2.31784,0.37913 -2.944,-0.69148c-0.50769,-0.86805 -3.75358,-6.83831 -3.75358,-6.83831c0,0 -5.60295,4.60588 -5.60344,4.60648c-0.0138,0.01721 0.10379,-22.3268 0.05338,-23.35308c-0.00086,-0.01744 6.31449,6.02781 17.87765,18.16268z" data-paper-data="{&quot;index&quot;:null}" stroke-opacity="0.48382" stroke="#2b2b2b" stroke-width="4"/><path d="M231.42342,166.50017c-0.00054,-0.01094 17.90824,18.23395 17.87763,18.23132c-0.48999,-0.04196 -7.4179,0 -7.4179,0c0,0 2.61699,4.9588 2.62785,4.98143c0.61629,1.28435 0.04974,2.57573 -0.83997,3.1323c-0.96775,0.60539 -2.31784,0.37913 -2.944,-0.69148c-0.50769,-0.86805 -3.75358,-6.83832 -3.75358,-6.83832c0,0 -5.17942,4.07768 -5.60344,4.60648c-0.0138,0.01721 0.10379,-22.39544 0.05338,-23.42173z" data-paper-data="{&quot;index&quot;:null}" stroke="none" stroke-width="0"/></g></g></svg>