<svg version="1.1" xmlns="http://www.w3.org/2000/svg" xmlns:xlink="http://www.w3.org/1999/xlink" width="17.4" height="17.4" viewBox="0,0,17.4,17.4"><g transform="translate(-231.375,-171.375)"><g data-paper-data="{&quot;isPaintingLayer&quot;:true}" stroke-linejoin="miter" stroke-miterlimit="10" stroke-dasharray="" stroke-dashoffset="0" style="mix-blend-mode: normal"><path d="M243.48927,184.62004c0,1.0238 -1.20679,1.55973 -1.95927,0.86966l-1.62452,-1.49185c-0.57526,-0.52745 -1.32493,-0.82017 -2.10413,-0.82017h-0.28411c-0.77639,0 -1.40651,-0.6321 -1.40651,-1.41408v-2.913c0,-0.78057 0.63012,-1.41408 1.40651,-1.41408h0.26864c0.7792,0 1.52887,-0.29272 2.10413,-0.82017l1.63998,-1.506c0.75248,-0.69007 1.95927,-0.15413 1.95927,0.86825z" fill="none" fill-rule="evenodd" stroke-opacity="0.25336" stroke="#000000" stroke-width="2" stroke-linecap="butt"/><path d="M243.48927,184.62004c0,1.0238 -1.20679,1.55973 -1.95927,0.86966l-1.62452,-1.49185c-0.57526,-0.52745 -1.32493,-0.82017 -2.10413,-0.82017h-0.28411c-0.77639,0 -1.40651,-0.6321 -1.40651,-1.41408v-2.913c0,-0.78057 0.63012,-1.41408 1.40651,-1.41408h0.26864c0.7792,0 1.52887,-0.29272 2.10413,-0.82017l1.63998,-1.506c0.75248,-0.69007 1.95927,-0.10413 1.95927,0.91825z" fill="#d3e3f3" fill-rule="evenodd" stroke="none" stroke-width="1" stroke-linecap="butt"/><path d="M242.48927,176.30851v5.99411c0,0.86537 -1.03505,1.31837 -1.68045,0.73508l-1.39334,-1.26101c-0.49339,-0.44584 -1.13638,-0.69326 -1.8047,-0.69326h-0.24368c-0.66591,0 -1.20636,-0.53429 -1.20636,-1.19526v-1.15209c0,-0.65979 0.59045,-1.24527 1.25636,-1.24527l0.38041,-0.05c0.66832,0 1.21131,-0.09742 1.7047,-0.54325l1.60661,-1.37296c0.6454,-0.58329 1.38045,-0.08028 1.38045,0.7839z" fill="#ffffff" fill-rule="evenodd" stroke="none" stroke-width="1" stroke-linecap="butt"/><path d="M233.375,186.775l13.4,-13.4" fill="none" fill-rule="nonzero" stroke-opacity="0.24994" stroke="#000000" stroke-width="4" stroke-linecap="round"/><path d="M233.375,186.775l13.4,-13.4" fill="none" fill-rule="nonzero" stroke="#d3e3f3" stroke-width="2" stroke-linecap="round"/><path d="M233.225,186.625l13.4,-13.4" fill="none" fill-rule="nonzero" stroke="#ffffff" stroke-width="1.5" stroke-linecap="round"/></g></g></svg>