<svg version="1.1" xmlns="http://www.w3.org/2000/svg" xmlns:xlink="http://www.w3.org/1999/xlink" width="16.00001" height="13.23562" viewBox="0,0,16.00001,13.23562"><g transform="translate(-232.74999,-175.25001)"><g data-paper-data="{&quot;isPaintingLayer&quot;:true}" fill-rule="evenodd" stroke-linecap="butt" stroke-linejoin="miter" stroke-miterlimit="10" stroke-dasharray="" stroke-dashoffset="0" style="mix-blend-mode: normal"><path d="M243.38078,184.62277c-0.1505,0 -0.30521,-0.03959 -0.44586,-0.12302c-0.41773,-0.24888 -0.55698,-0.79047 -0.30944,-1.21045c0.47118,-0.8032 0.47118,-1.79871 0,-2.6005c-0.24755,-0.42139 -0.10829,-0.96299 0.30944,-1.21187c0.42195,-0.24605 0.95923,-0.10747 1.20396,0.31109c0.79749,1.35752 0.79749,3.04311 0,4.40063c-0.16315,0.27999 -0.45711,0.43412 -0.75811,0.43412zM246.00664,186.04096c-0.1505,0 -0.30661,-0.0396 -0.44586,-0.12303c-0.41773,-0.24888 -0.55698,-0.79047 -0.30943,-1.21045c0.98596,-1.6771 0.98596,-3.76146 0,-5.43715c-0.24755,-0.41998 -0.1083,-0.96298 0.30943,-1.21186c0.41914,-0.24463 0.95642,-0.10747 1.20397,0.31109c1.31367,2.23142 1.31367,5.00585 0,7.23727c-0.16456,0.27999 -0.45712,0.43413 -0.75811,0.43413zM241.12853,177.66422v8.64145c0,1.0238 -1.20679,1.55973 -1.95927,0.86966l-1.62452,-1.49185c-0.57526,-0.52745 -1.32493,-0.82017 -2.10413,-0.82017h-0.28411c-0.77639,0 -1.40651,-0.6321 -1.40651,-1.41408v-2.913c0,-0.78057 0.63012,-1.41408 1.40651,-1.41408h0.26864c0.7792,0 1.52887,-0.29272 2.10413,-0.82017l1.63998,-1.506c0.75248,-0.69007 1.95927,-0.15413 1.95927,0.86825z" fill="none" stroke-opacity="0.25336" stroke="#000000" stroke-width="2"/><path d="M243.38078,184.62277c-0.1505,0 -0.30521,-0.03959 -0.44586,-0.12302c-0.41773,-0.24888 -0.55698,-0.79047 -0.30944,-1.21045c0.47118,-0.8032 0.47118,-1.79871 0,-2.6005c-0.24755,-0.42139 -0.10829,-0.96299 0.30944,-1.21187c0.42195,-0.24605 0.95923,-0.10747 1.20396,0.31109c0.79749,1.35752 0.79749,3.04311 0,4.40063c-0.16315,0.27999 -0.45711,0.43412 -0.75811,0.43412zM246.00664,186.04096c-0.1505,0 -0.30661,-0.0396 -0.44586,-0.12303c-0.41773,-0.24888 -0.55698,-0.79047 -0.30943,-1.21045c0.98596,-1.6771 0.98596,-3.76146 0,-5.43715c-0.24755,-0.41998 -0.1083,-0.96298 0.30943,-1.21186c0.41914,-0.24463 0.95642,-0.10747 1.20397,0.31109c1.31367,2.23142 1.31367,5.00585 0,7.23727c-0.16456,0.27999 -0.45712,0.43413 -0.75811,0.43413zM241.12853,177.66422v8.64145c0,1.0238 -1.20679,1.55973 -1.95927,0.86966l-1.62452,-1.49185c-0.57526,-0.52745 -1.32493,-0.82017 -2.10413,-0.82017h-0.28411c-0.77639,0 -1.40651,-0.6321 -1.40651,-1.41408v-2.913c0,-0.78057 0.63012,-1.41408 1.40651,-1.41408h0.26864c0.7792,0 1.52887,-0.29272 2.10413,-0.82017l1.63998,-1.506c0.75248,-0.69007 1.95927,-0.15413 1.95927,0.86825z" fill="#d3e3f3" stroke="none" stroke-width="1"/><path d="M240.07853,177.99414v5.99411c0,0.86537 -1.03505,1.31837 -1.68045,0.73508l-1.39334,-1.26101c-0.49339,-0.44584 -1.13638,-0.69326 -1.8047,-0.69326h-0.24368c-0.66591,0 -1.20636,-0.53429 -1.20636,-1.19526v-1.15209c0,-0.65979 0.59045,-1.24527 1.25636,-1.24527l0.38041,-0.05c0.66832,0 1.21131,-0.09742 1.7047,-0.54325l1.60661,-1.37296c0.6454,-0.58329 1.38045,-0.08028 1.38045,0.7839z" fill="#ffffff" stroke="none" stroke-width="1"/></g></g></svg>