<svg version="1.1" xmlns="http://www.w3.org/2000/svg" xmlns:xlink="http://www.w3.org/1999/xlink" width="22.27115" height="18.80566" viewBox="0,0,22.27115,18.80566"><g transform="translate(-228.86444,-170.68529)"><g data-paper-data="{&quot;isPaintingLayer&quot;:true}" fill-rule="nonzero" stroke-linecap="butt" stroke-linejoin="miter" stroke-miterlimit="10" stroke-dasharray="" stroke-dashoffset="0" style="mix-blend-mode: normal"><path d="M242.62485,172.10452l6.90828,6.49377c0.38442,0.37509 0.6407,0.83906 0.6407,1.33918c0,0.62516 -0.25628,1.08913 -0.6407,1.46422l-6.5859,6.3326c-0.64069,0.62516 -1.4079,0.90746 -2.08002,0.72579c-0.67212,-0.18167 -1.1202,-0.77065 -1.1202,-1.64587v-1.89117h-7.94709c-1.13747,-0.041 -1.91021,-0.84658 -1.91965,-1.54524l-0.03224,-4.9298c0.00035,-0.0126 6.5154,-1.03747 10.22172,-2.92153c2.24322,-1.14031 2.31352,-3.65767 2.55509,-3.42196z" data-paper-data="{&quot;index&quot;:null}" fill="#d3e3f3" stroke-opacity="0.1" stroke="#000000" stroke-width="0"/><path d="M239.68782,173.16158c0,-0.62781 0.28959,-1.22339 0.91739,-1.53729c0.62781,-0.31391 1.4649,-0.13688 1.98807,0.3863l5.8839,5.61807c0.31391,0.31391 0.52318,0.83708 0.52318,1.25563c0,0.52318 -0.13784,0.89171 -0.52318,1.27705c0,0 -5.7762,5.84097 -5.78473,5.84617c-0.52236,0.31624 -1.20509,0.54597 -1.88678,0.2968c-0.68168,-0.24918 -1.03849,-0.99819 -1.03849,-1.70079v-1.25813h-8.01582c-1.04635,-0.10464 -1.67417,-0.62781 -1.88344,-1.7788v-4.42225c0.03415,-1.25622 0.64286,-1.8921 1.88344,-2.09271h7.93646z" data-paper-data="{&quot;index&quot;:null}" fill="#ffffff" stroke="none" stroke-width="0"/><path d="M239.23119,185.43889h-7.56023c-1.51924,-0.23971 -2.26468,-0.99954 -2.30651,-2.50063v-6.25158c0.25628,-1.37535 1.02511,-2.00051 2.30651,-2.12554h7.56023v-1.37535c0,-0.87522 0.51256,-1.62541 1.28139,-2.0005c0.76884,-0.3751 1.79396,-0.12504 2.43465,0.50012l7.04767,6.7017c0.38442,0.37509 0.6407,1.05025 0.6407,1.67541c0,0.50012 -0.25628,1.12529 -0.6407,1.50038l-6.94767,6.75169c-0.6407,0.62516 -1.81582,0.87522 -2.58465,0.50013c-0.76883,-0.37509 -1.23139,-1.12528 -1.23139,-1.87547z" data-paper-data="{&quot;index&quot;:null}" fill="none" stroke-opacity="0.14835" stroke="#000000" stroke-width="1"/></g></g></svg>