<svg version="1.1" xmlns="http://www.w3.org/2000/svg" xmlns:xlink="http://www.w3.org/1999/xlink" width="29.79512" height="40.82406" viewBox="0,0,29.79512,40.82406"><g transform="translate(-225.10244,-159.58797)"><g data-paper-data="{&quot;isPaintingLayer&quot;:true}" stroke-linecap="butt" stroke-linejoin="miter" stroke-miterlimit="10" stroke-dasharray="" stroke-dashoffset="0" style="mix-blend-mode: normal"><path d="M243.90859,183.91803c-0.2236,0 -0.45345,-0.05882 -0.66242,-0.18277c-0.62062,-0.36977 -0.82752,-1.17441 -0.45974,-1.79838c0.70004,-1.19332 0.70004,-2.67237 0,-3.8636c-0.36779,-0.62607 -0.16088,-1.43073 0.45974,-1.80049c0.62689,-0.36556 1.42514,-0.15967 1.78874,0.46219c1.18484,2.01689 1.18484,4.52119 0,6.53808c-0.24239,0.41599 -0.67913,0.64498 -1.12633,0.64498zM247.80987,186.02506c-0.2236,0 -0.45553,-0.05884 -0.66242,-0.18279c-0.62062,-0.36977 -0.82752,-1.17441 -0.45972,-1.79838c1.46486,-2.49169 1.46486,-5.58845 0,-8.07805c-0.36779,-0.62397 -0.1609,-1.43071 0.45972,-1.80048c0.62272,-0.36345 1.42096,-0.15967 1.78876,0.46219c1.95174,3.31525 1.95174,7.43726 0,10.75251c-0.24449,0.41599 -0.67915,0.645 -1.12634,0.645zM240.5624,173.57962v12.83872c0,1.52107 -1.79295,2.31731 -2.91092,1.29206l-2.41357,-2.21646c-0.85467,-0.78364 -1.96847,-1.21854 -3.12614,-1.21854h-0.42211c-1.15349,0 -2.08967,-0.93911 -2.08967,-2.10091v-4.32789c0,-1.15971 0.93617,-2.10092 2.08967,-2.10092h0.39912c1.15767,0 2.27147,-0.4349 3.12614,-1.21854l2.43654,-2.23748c1.11797,-1.02525 2.91091,-0.22899 2.91091,1.28997z" fill="none" fill-rule="evenodd" stroke-opacity="0.25336" stroke="#000000" stroke-width="2"/><path d="M231.63208,171.54537l-0.0495,-0.0495c-0.54717,-0.47907 -1.37875,-0.42532 -1.85969,0.12021l-0.23334,0.23335c-0.22846,0.24492 -0.44328,0.50222 -0.64347,0.77075c-0.29699,0.38184 -0.59397,0.84853 -0.92631,1.37886c-0.34531,0.61828 -0.65001,1.25839 -0.91217,1.91626c-0.63997,1.68591 -0.94966,3.47919 -0.91217,5.28208c0.0632,2.11253 0.59452,4.18469 1.55563,6.06698c0.24558,0.46588 0.51463,0.91901 0.80611,1.35764c0.30607,0.46853 0.64144,0.91726 1.00409,1.3435c0.28285,0.28285 0.57276,0.57276 0.8556,0.8556c0.46949,0.47703 0.97542,0.91676 1.51321,1.31522c1.54156,1.14705 3.28915,1.98724 5.14774,2.47487c0.76584,0.17568 1.5433,0.2962 2.32638,0.36062l0.12021,0.00708l-0.00707,3.48603c0.0061,0.23428 0.10235,0.45718 0.2687,0.62225c0.17374,0.17752 0.41128,0.27815 0.65967,0.27948c0.24839,0.00133 0.48699,-0.09677 0.66262,-0.27241l6.24375,-6.24375c0.36047,-0.36042 0.36362,-0.94385 0.00707,-1.30814l-6.25082,-6.25082c-0.26723,-0.26426 -0.66724,-0.3417 -1.01379,-0.19628c-0.34655,0.14542 -0.57151,0.48514 -0.57013,0.86096v3.30926c-0.44244,0.0025 -0.88445,-0.02823 -1.32229,-0.09193c-1.2304,-0.16565 -2.41682,-0.56913 -3.49311,-1.18794c-0.61298,-0.35836 -1.18653,-0.78023 -1.7112,-1.25865l-0.33234,-0.33234c-0.15556,-0.15556 -0.30405,-0.30406 -0.4384,-0.43841v0c-0.19092,-0.19092 -0.52326,-0.73539 -0.69296,-0.90509c-0.83878,-1.25842 -1.38486,-2.68884 -1.59807,-4.18607c-0.18966,-1.34262 -0.1152,-2.70937 0.21921,-4.02344c0.14747,-0.52613 0.33177,-1.04124 0.55155,-1.54149c0.21213,-0.45255 0.42426,-0.83438 0.56568,-1.11723c0.14142,-0.28285 0.36769,-0.55154 0.47376,-0.74246c0.10607,-0.19092 0.19092,-0.27577 0.19092,-0.27577c0.35731,-0.521 0.2919,-1.2228 -0.15556,-1.66878M232.38869,170.78876v0c0.82708,0.76866 0.97389,2.02402 0.34648,2.96278c-0.03536,0.0495 -0.18384,0.19799 -0.20506,0.28991c-0.02122,0.09193 -0.08486,0.15557 -0.15556,0.22628c-0.0932,0.12644 -0.17822,0.2587 -0.25456,0.39598l-0.0495,0.0495c-0.16263,0.27577 -0.36769,0.69297 -0.50912,1.0041c-0.19518,0.45712 -0.35821,0.92731 -0.4879,1.40714c-0.30199,1.19188 -0.36923,2.43112 -0.19799,3.64867c0.19212,1.3331 0.67491,2.60768 1.41421,3.73352l0.21213,0.35356l0.29699,0.41012l0.12728,0.12728c0.11313,0.11313 0.24042,0.24041 0.3677,0.36769l0.25456,0.25456c0.47129,0.42673 0.98551,0.8035 1.53442,1.1243c0.96875,0.56824 2.04073,0.93839 3.15369,1.08895l0.17678,0.02121v-2.26274c-0.00304,-0.78207 0.46621,-1.48867 1.18822,-1.78925c0.72201,-0.30058 1.55405,-0.13572 2.1069,0.41747l6.28618,6.28618c0.74706,0.75484 0.7439,1.97141 -0.00707,2.72236l-6.22254,6.22254c-0.75875,0.75097 -1.98165,0.7478 -2.7365,-0.00708c-0.36139,-0.36178 -0.5626,-0.85337 -0.55862,-1.36471l0.00707,-2.59508c-0.56569,-0.08486 -1.12194,-0.19327 -1.66877,-0.32527c-1.97656,-0.52371 -3.83442,-1.42144 -5.473,-2.64458c-0.57286,-0.42423 -1.11188,-0.89232 -1.61221,-1.40007c-0.28992,-0.28992 -0.59397,-0.59397 -0.92631,-0.92631c-0.38018,-0.44663 -0.73206,-0.91659 -1.05359,-1.40714c-0.21508,-0.30582 -0.41109,-0.62463 -0.5869,-0.95459l-0.34648,-0.53033l-0.04243,-0.04243c-1.02617,-2.01712 -1.59361,-4.2362 -1.6617,-6.49831c-0.03891,-1.93816 0.29476,-3.86576 0.98288,-5.67807c0.27866,-0.69672 0.60225,-1.37461 0.96873,-2.0294v0c0.35356,-0.55155 0.66468,-1.04651 0.96874,-1.43543c0.1744,-0.2422 0.3633,-0.47361 0.56569,-0.69296c0.04243,-0.04243 0.08485,-0.08486 0.1202,-0.12021l0.26163,-0.26163c0.40634,-0.46047 0.97931,-0.74018 1.5923,-0.77733c0.613,-0.03715 1.21555,0.17132 1.67453,0.57934l0.099,0.099z" fill-opacity="0.20371" fill="#000000" fill-rule="nonzero" stroke="none" stroke-width="1"/><path d="M249.73263,169.1623c-0.4698,-0.47671 -0.9757,-0.91642 -1.51321,-1.31522c-1.53922,-1.14502 -3.28456,-1.98288 -5.14067,-2.4678c-0.76585,-0.17565 -1.5433,-0.29617 -2.32638,-0.36062l-0.1202,-0.00707l0.00707,-3.48603c0.00734,-0.38209 -0.21982,-0.7298 -0.57268,-0.87656c-0.35286,-0.14676 -0.75959,-0.06272 -1.02538,0.21188l-6.26497,6.26497c-0.36319,0.36319 -0.36319,0.95203 0,1.31522l6.23668,6.23668c0.26565,0.26841 0.66724,0.34952 1.01624,0.20527c0.34901,-0.14425 0.57613,-0.48524 0.57475,-0.86288l0.00707,-3.31633c0.44002,0.00594 0.87927,0.03901 1.31522,0.099c1.22937,0.17005 2.41495,0.57325 3.4931,1.18794c0.61496,0.36139 1.19079,0.78556 1.71827,1.26572l0.33234,0.33234c0.15556,0.15556 0.30406,0.30405 0.43841,0.4384v0c0.19092,0.19092 0.52326,0.73539 0.68589,0.89802c0.84257,1.25974 1.39114,2.69279 1.60513,4.19315c0.18586,1.34278 0.11143,2.70879 -0.2192,4.02344c-0.1466,0.52922 -0.32608,1.04878 -0.5374,1.55563c-0.21213,0.45255 -0.39598,0.79196 -0.5374,1.06066c-0.14394,0.25543 -0.30457,0.5011 -0.48084,0.7354c-0.10607,0.19092 -0.19092,0.27577 -0.19092,0.27577c-0.35118,0.51894 -0.28913,1.21325 0.14849,1.6617l0.07071,0.07071c0.2622,0.22958 0.60507,0.34522 0.95276,0.32133c0.34769,-0.02389 0.67152,-0.18533 0.89986,-0.44861c0,0 0.07778,-0.07778 0.23334,-0.23334c0.22843,-0.24495 0.44325,-0.50225 0.64347,-0.77075c0.33067,-0.44145 0.63525,-0.90186 0.91217,-1.37886c0.35321,-0.61279 0.66046,-1.25093 0.91924,-1.90919c0.63997,-1.68591 0.94965,-3.47919 0.91216,-5.28209c-0.0632,-2.11253 -0.59452,-4.18468 -1.55563,-6.06697c-0.24555,-0.4659 -0.5146,-0.91903 -0.8061,-1.35764c-0.30782,-0.47135 -0.64557,-0.92248 -1.01116,-1.35058c-0.28285,-0.28285 -0.57275,-0.57275 -0.8556,-0.8556M250.37609,168.53297v0c0.28285,0.28285 0.5869,0.5869 0.91924,0.91924c0.38316,0.44845 0.73743,0.92082 1.06066,1.41422c0.20858,0.31324 0.3975,0.63914 0.56569,0.97581l0.2687,0.46669l0.04243,0.04243c1.02617,2.01712 1.59362,4.2362 1.6617,6.49831c0.03891,1.93816 -0.29476,3.86576 -0.98288,5.67807c-0.28055,0.7098 -0.61382,1.39761 -0.99702,2.05768c-0.28905,0.50177 -0.60782,0.98582 -0.9546,1.44957c-0.1744,0.2422 -0.3633,0.47361 -0.56569,0.69296c-0.04243,0.04243 0.01414,-0.01414 -0.12021,0.12021c-0.13435,0.13435 -0.22627,0.22627 -0.2687,0.2687c-0.84619,0.93541 -2.28471,1.02335 -3.23855,0.19799l-0.16971,-0.16971c-0.78599,-0.79518 -0.89301,-2.03785 -0.25456,-2.95571l0.17678,-0.24749l0.16263,-0.16263c0.1045,-0.13928 0.19902,-0.28578 0.28284,-0.4384l0.0495,-0.0495c0.15556,-0.25456 0.35355,-0.66468 0.50911,-1.00409c0.18849,-0.45652 0.34907,-0.92407 0.48084,-1.40007c0.29998,-1.19218 0.36721,-2.43103 0.19799,-3.64867c-0.18706,-1.33772 -0.67283,-2.61618 -1.42129,-3.74059l-0.25456,-0.35356l-0.29699,-0.41012l-0.12728,-0.12728l-0.37476,-0.37477l-0.28285,-0.28284c-0.47981,-0.41948 -1.00104,-0.78908 -1.55563,-1.10309c-0.95666,-0.56401 -2.01299,-0.93852 -3.11127,-1.10308l-0.17677,-0.02122l0.04243,2.29103c0.00306,0.78391 -0.46835,1.49179 -1.19283,1.7912c-0.72448,0.29941 -1.5581,0.13087 -2.10935,-0.42649l-6.24375,-6.24375c-0.75371,-0.75371 -0.75371,-1.97572 0,-2.72943l6.24375,-6.24375c0.55125,-0.55736 1.38487,-0.7259 2.10935,-0.42649c0.72448,0.29941 1.19589,1.0073 1.19283,1.79121l0.0495,2.56679c0.56569,0.08486 1.12194,0.19328 1.66877,0.32527c1.97356,0.5224 3.82891,1.41768 5.46594,2.63751c0.57226,0.42497 1.11123,0.89302 1.61221,1.40007z" fill-opacity="0.20371" fill="#000000" fill-rule="nonzero" stroke="none" stroke-width="1"/><path d="M243.90859,183.91803c-0.2236,0 -0.45345,-0.05882 -0.66242,-0.18277c-0.62062,-0.36977 -0.82752,-1.17441 -0.45974,-1.79838c0.70004,-1.19332 0.70004,-2.67237 0,-3.8636c-0.36779,-0.62607 -0.16088,-1.43073 0.45974,-1.80049c0.62689,-0.36556 1.42514,-0.15967 1.78874,0.46219c1.18484,2.01689 1.18484,4.52119 0,6.53808c-0.24239,0.41599 -0.67913,0.64498 -1.12633,0.64498zM247.80987,186.02506c-0.2236,0 -0.45553,-0.05884 -0.66242,-0.18279c-0.62062,-0.36977 -0.82752,-1.17441 -0.45972,-1.79838c1.46486,-2.49169 1.46486,-5.58845 0,-8.07805c-0.36779,-0.62397 -0.1609,-1.43071 0.45972,-1.80048c0.62272,-0.36345 1.42096,-0.15967 1.78876,0.46219c1.95174,3.31525 1.95174,7.43726 0,10.75251c-0.24449,0.41599 -0.67915,0.645 -1.12634,0.645zM240.5624,173.57962v12.83872c0,1.52107 -1.79295,2.31731 -2.91092,1.29206l-2.41357,-2.21646c-0.85467,-0.78364 -1.96847,-1.21854 -3.12614,-1.21854h-0.42211c-1.15349,0 -2.08967,-0.93911 -2.08967,-2.10091v-4.32789c0,-1.15971 0.93617,-2.10092 2.08967,-2.10092h0.39912c1.15767,0 2.27147,-0.4349 3.12614,-1.21854l2.43654,-2.23748c1.11797,-1.02525 2.91091,-0.22899 2.91091,1.28997z" fill="#d3e3f3" fill-rule="evenodd" stroke="none" stroke-width="1"/><path d="M239.0024,174.06978v8.90553c0,1.28569 -1.53779,1.95872 -2.49667,1.09212l-2.07011,-1.8735c-0.73304,-0.66239 -1.68833,-1.02998 -2.68126,-1.02998h-0.36204c-0.98935,0 -1.7923,-0.79381 -1.7923,-1.77582v-1.71167c0,-0.98026 0.87724,-1.85012 1.86659,-1.85012l0.56518,-0.07428c0.99293,0 1.79966,-0.14474 2.53269,-0.80712l2.38697,-2.03983c0.95888,-0.8666 2.05096,-0.11928 2.05096,1.16465z" fill="#ffffff" fill-rule="evenodd" stroke="none" stroke-width="1"/><path d="M249.73529,169.13693c0.28285,0.28285 0.57688,0.57834 0.85973,0.86119c0.36559,0.4281 0.70763,0.88759 1.01545,1.35894c0.2915,0.43861 0.56298,0.89974 0.80853,1.36564c0.96111,1.88229 1.49024,3.98282 1.55344,6.09535c0.03749,1.8029 -0.28277,3.61289 -0.92274,5.2988c-0.25878,0.65826 -0.57124,1.30113 -0.92444,1.91392c-0.27692,0.477 -0.58579,0.94044 -0.91646,1.38189c-0.20022,0.2685 -0.41773,0.52738 -0.64616,0.77232c-0.15556,0.15556 -0.23425,0.23382 -0.23425,0.23382c-0.22834,0.26328 -0.55512,0.42613 -0.90281,0.45002c-0.34769,0.02389 -0.69289,-0.0908 -0.95509,-0.32038l-0.07084,-0.07066c-0.43762,-0.44845 -0.53647,-1.23573 -0.18529,-1.75467c0,0 0.08384,-0.08441 0.18991,-0.27533c0.17627,-0.2343 0.33423,-0.4787 0.47816,-0.73413c0.14142,-0.2687 0.32171,-0.60609 0.53384,-1.05864c0.21132,-0.50685 0.38596,-1.02299 0.53256,-1.55221c0.33063,-1.31465 0.39407,-2.66837 0.20821,-4.01115c-0.21399,-1.50036 -0.77025,-2.90876 -1.61282,-4.1685c-0.16263,-0.16263 -0.49451,-0.69791 -0.68543,-0.88883v0c-0.13435,-0.13435 -0.28173,-0.27729 -0.43729,-0.43285l-0.33089,-0.32771c-0.52748,-0.48016 -1.08792,-0.88282 -1.70288,-1.24421c-1.07815,-0.61469 -2.2165,-1.00922 -3.44586,-1.17927c-0.43595,-0.05999 -0.86361,-0.09864 -1.30363,-0.10458l0.01401,3.28707c0.00138,0.37764 -0.2242,0.70317 -0.57321,0.84742c-0.349,0.14425 -0.85051,0.06569 -1.11616,-0.20272l-6.22956,-6.26211c-0.36319,-0.36319 -0.36078,-0.95568 0.00241,-1.31887l6.291,-6.28348c0.26579,-0.2746 0.67603,-0.35956 1.02889,-0.2128c0.35286,0.14676 0.60055,0.59233 0.59321,0.97442l-0.00378,3.48527l0.09498,-0.0897c0.78308,0.06445 1.57212,0.18343 2.33797,0.35908c1.85611,0.48492 3.63166,1.33239 5.17088,2.47741c0.53751,0.3988 1.05203,0.84651 1.52183,1.32322" data-paper-data="{&quot;noHover&quot;:false,&quot;origItem&quot;:[&quot;Path&quot;,{&quot;applyMatrix&quot;:true,&quot;segments&quot;:[[[499.46526,338.3246],[0,0],[-0.9396,-0.95342]],[[496.43884,335.69416],[1.07502,0.7976],[-3.07844,-2.29004]],[[486.1575,330.75856],[3.71222,0.96984],[-1.5317,-0.3513]],[[481.50474,330.03732],[1.56616,0.1289],[0,0]],[481.26434,330.02318],[[481.27848,323.05112],[0,0],[0.01468,-0.76418]],[[480.13312,321.298],[0.70572,0.29352],[-0.70572,-0.29352]],[[478.08236,321.72176],[0.53158,-0.5492],[0,0]],[[465.55242,334.2517],[0,0],[-0.72638,0.72638]],[[465.55242,336.88214],[-0.72638,-0.72638],[0,0]],[[478.02578,349.3555],[0,0],[0.5313,0.53682]],[[480.05826,349.76604],[-0.698,0.2885],[0.69802,-0.2885]],[[481.20776,348.04028],[0.00276,0.75528],[0,0]],[[481.2219,341.40762],[0,0],[0.88004,0.01188]],[[483.85234,341.60562],[-0.8719,-0.11998],[2.45874,0.3401]],[[490.83854,343.9815],[-2.1563,-1.22938],[1.22992,0.72278]],[[494.27508,346.51294],[-1.05496,-0.96032],[0,0]],[[494.93976,347.17762],[0,0],[0.31112,0.31112]],[[495.81658,348.05442],[-0.2687,-0.2687],[0,0]],[[495.81658,348.05442],[0,0],[0.38184,0.38184]],[[497.18836,349.85046],[-0.32526,-0.32526],[1.68514,2.51948]],[[500.39862,358.23676],[-0.42798,-3.00072],[0.37172,2.68556]],[[499.96022,366.28364],[0.66126,-2.6293],[-0.2932,1.05844]],[[498.88542,369.3949],[0.42264,-1.0137],[-0.42426,0.9051]],[[497.81062,371.51622],[0.28284,-0.5374],[-0.28788,0.51086]],[[496.84894,372.98702],[0.35254,-0.4686],[-0.21214,0.38184]],[[496.4671,373.53856],[0,0],[-0.70236,1.03788]],[[496.76408,376.86196],[-0.87524,-0.8969],[0,0]],[[496.9055,377.00338],[0,0],[0.5244,0.45916]],[[498.81102,377.64604],[-0.69538,0.04778],[0.69538,-0.04778]],[[500.61074,376.74882],[-0.45668,0.52656],[0,0]],[[501.07742,376.28214],[-0.31112,0.31112],[0.45686,-0.4899]],[[502.36436,374.74064],[-0.40044,0.537],[0.66134,-0.8829]],[[504.1887,371.98292],[-0.55384,0.954],[0.70642,-1.22558]],[[506.02718,368.16454],[-0.51756,1.31652],[1.27994,-3.37182]],[[507.8515,357.60036],[0.07498,3.6058],[-0.1264,-4.22506]],[[504.74024,345.46642],[1.92222,3.76458],[-0.4911,-0.9318]],[[503.12804,342.75114],[0.583,0.87722],[-0.61564,-0.9427]],[[501.10572,340.04998],[0.73118,0.8562],[-0.5657,-0.5657]],[[499.39452,338.33878],[0.5657,0.5657],[0,0]]],&quot;fillColor&quot;:[0,0,0,1]}]}" fill="#ffffff" fill-rule="nonzero" stroke="none" stroke-width="0.5"/><path d="M231.66415,171.44901c0.44746,0.44598 0.54931,1.24089 0.192,1.76189c0,0 -0.08384,0.08442 -0.18991,0.27534c-0.10607,0.19092 -0.32968,0.45836 -0.4711,0.74121c-0.14142,0.28285 -0.3498,0.66257 -0.56193,1.11512c-0.21978,0.50025 -0.39923,1.01192 -0.54669,1.53805c-0.33441,1.31407 -0.39786,2.6685 -0.2082,4.01112c0.21321,1.49723 0.76697,2.90297 1.60575,4.16139c0.1697,0.1697 0.50155,0.70488 0.69247,0.8958v0c0.13435,0.13435 0.28169,0.27729 0.43725,0.43285l0.33086,0.3277c0.52467,0.47842 1.08283,0.8789 1.69581,1.23726c1.07629,0.61881 2.21553,1.01369 3.44593,1.17934c0.43784,0.0637 0.86819,0.10006 1.31063,0.09756l-0.02097,-3.28015c-0.00138,-0.37582 0.22201,-0.70011 0.56856,-0.84553c0.34655,-0.14542 0.84649,-0.0704 1.11372,0.19386l6.24368,6.27627c0.35655,0.36429 0.35099,0.95135 -0.00948,1.31177l-6.26968,6.26221c-0.17563,0.17564 -0.4166,0.2744 -0.66499,0.27307c-0.24839,-0.00133 -0.4879,-0.10151 -0.66164,-0.27903c-0.16635,-0.16507 -0.28249,-0.48597 -0.28859,-0.72025l0.00376,-3.48526l-0.09475,0.08963c-0.78308,-0.06442 -1.57209,-0.18338 -2.33793,-0.35906c-1.85859,-0.48763 -3.63643,-1.33732 -5.17799,-2.48437c-0.53779,-0.39846 -1.05237,-0.84617 -1.52186,-1.3232c-0.28284,-0.28284 -0.57688,-0.57832 -0.85973,-0.86117c-0.36265,-0.42624 -0.70229,-0.88327 -1.00836,-1.3518c-0.29148,-0.43863 -0.56298,-0.89974 -0.80856,-1.36562c-0.96111,-1.88229 -1.49032,-3.98286 -1.55352,-6.09539c-0.03749,-1.80289 0.28277,-3.61293 0.92274,-5.29884c0.26216,-0.65787 0.57207,-1.30271 0.91738,-1.92099c0.33234,-0.53033 0.63365,-1.00008 0.93063,-1.38192c0.20019,-0.26853 0.41771,-0.52741 0.64617,-0.77233l0.23425,-0.23383c0.48094,-0.54553 1.31781,-0.60164 1.86498,-0.12257l0.04959,0.04946" data-paper-data="{&quot;noHover&quot;:false,&quot;origItem&quot;:[&quot;Path&quot;,{&quot;applyMatrix&quot;:true,&quot;segments&quot;:[[463.26416,343.09074],[[463.16516,342.99174],[0,0],[-1.09434,-0.95814]],[[459.44578,343.23216],[0.96188,-1.09106],[0,0]],[[458.9791,343.69886],[0,0],[-0.45692,0.48984]],[[457.69216,345.24036],[0.40038,-0.53706],[-0.59398,0.76368]],[[455.83954,347.99808],[0.66468,-1.06066],[-0.69062,1.23656]],[[454.0152,351.8306],[0.52432,-1.31574],[-1.27994,3.37182]],[[452.19086,362.39476],[-0.07498,-3.60578],[0.1264,4.22506]],[[455.30212,374.52872],[-1.92222,-3.76458],[0.49116,0.93176]],[[456.91434,377.244],[-0.58296,-0.87726],[0.61214,0.93706]],[[458.92252,379.931],[-0.7253,-0.85248],[0.5657,0.5657]],[[460.63372,381.6422],[-0.56568,-0.56568],[0.93898,0.95406]],[[463.66014,384.27264],[-1.07558,-0.79692],[3.08312,2.2941]],[[473.95562,389.22238],[-3.71718,-0.97526],[1.53168,0.35136]],[[478.60838,389.94362],[-1.56616,-0.12884],[0,0]],[478.8488,389.95778],[[478.83466,396.92984],[0,0],[0.0122,0.46856]],[[479.37206,398.17434],[-0.3327,-0.33014],[0.34748,0.35504]],[[480.6914,398.7333],[-0.49678,-0.00266],[0.49678,0.00266]],[[482.01664,398.18848],[-0.35126,0.35128],[0,0]],[[494.50414,385.70098],[0,0],[0.72094,-0.72084]],[[494.51828,383.0847],[0.7131,0.72858],[0,0]],[[482.01664,370.58306],[0,0],[-0.53446,-0.52852]],[[479.98906,370.1905],[0.6931,-0.29084],[-0.6931,0.29084]],[[478.8488,371.91242],[-0.00276,-0.75164],[0,0]],[[478.8488,378.53094],[0,0],[-0.88488,0.005]],[[476.20422,378.34708],[0.87568,0.1274],[-2.4608,-0.3313]],[[469.218,375.9712],[2.15258,1.23762],[-1.22596,-0.71672]],[[465.7956,373.4539],[1.04934,0.95684],[0,0]],[[465.13092,372.78922],[0,0],[-0.31112,-0.31112]],[[464.25412,371.9124],[0.2687,0.2687],[0,0]],[[464.25412,371.9124],[0,0],[-0.38184,-0.38184]],[[462.8682,370.10222],[0.3394,0.3394],[-1.67756,-2.51684]],[[459.67206,361.73008],[0.42642,2.99446],[-0.37932,-2.68524]],[[460.11048,353.6832],[-0.66882,2.62814],[0.29494,-1.05226]],[[461.21358,350.60022],[-0.43956,1.0005],[0.42426,-0.9051]],[[462.34494,348.36576],[-0.28284,0.5657],[0.28284,-0.5657]],[[463.29246,346.88084],[-0.21214,0.38184],[0.21214,-0.38184]],[[463.6743,346.3293],[0,0],[0.71462,-1.042]],[[463.36318,342.99174],[0.89492,0.89196],[0,0]]],&quot;fillColor&quot;:[0,0,0,1]}]}" fill="#ffffff" fill-rule="nonzero" stroke="none" stroke-width="0.5"/></g></g></svg>