<svg version="1.1" xmlns="http://www.w3.org/2000/svg" xmlns:xlink="http://www.w3.org/1999/xlink" width="29.64" height="33.62" viewBox="0,0,29.64,33.62"><g transform="translate(-225.04,-161.22)"><g data-paper-data="{&quot;isPaintingLayer&quot;:true}" stroke-linecap="butt" stroke-linejoin="miter" stroke-miterlimit="10" stroke-dasharray="" stroke-dashoffset="0" style="mix-blend-mode: normal"><path d="M238.68,164.51c-0.76767,0 -1.39,-0.62232 -1.39,-1.39v-0.51c0,-0.76767 0.62233,-1.39 1.39,-1.39h2.82c0.76767,0 1.39,0.62233 1.39,1.39v0.51c0,0.76767 -0.62232,1.39 -1.39,1.39z" fill="#a63fa6" fill-rule="nonzero" stroke="none" stroke-width="1"/><path d="M238.64,165.89v-1.79h2.8v1.79z" fill="#a63fa6" fill-rule="nonzero" stroke="none" stroke-width="1"/><path d="M225.79,179.99c0,-7.78722 6.29936,-14.1 14.07,-14.1c7.77065,0 14.07,6.31279 14.07,14.1c0,7.78722 -6.29935,14.1 -14.07,14.1c-7.77065,0 -14.07,-6.31278 -14.07,-14.1z" fill="#ffffff" fill-rule="nonzero" stroke="#cf8b17" stroke-width="1"/><path d="M253.93,180c0.13638,5.11436 -2.51417,9.89969 -6.922,12.49705c-4.40783,2.59736 -9.87818,2.59736 -14.28601,0c-4.40783,-2.59736 -7.05838,-7.38269 -6.92199,-12.49705c0.00079,-0.66908 0.04756,-1.33733 0.14,-2c0.96965,6.94676 6.9109,12.1163 13.925,12.1163c7.01411,0 12.95534,-5.16954 13.925,-12.1163c0.09244,0.66267 0.13922,1.33092 0.14,2z" fill="#070707" fill-rule="nonzero" stroke="none" stroke-width="1" opacity="0.1"/><path d="M251.68618,166.93857l1.14731,1.14372c0.23468,0.23395 0.23528,0.61384 0.00134,0.84852l-1.27079,1.27479c-0.464,0.46545 -1.21746,0.46664 -1.68292,0.00265l-0.31161,-0.31064c-0.22602,-0.22526 -0.35211,-0.53185 -0.34995,-0.85094c0.00216,-0.3191 0.13238,-0.62396 0.36143,-0.84613l1.27079,-1.27479c0.23605,-0.22152 0.60527,-0.21584 0.83441,0.01283z" fill="#a63fa6" fill-rule="nonzero" stroke="none" stroke-width="1"/><path d="M242.63078,182.63714c-0.1505,0 -0.30521,-0.03959 -0.44586,-0.12302c-0.41773,-0.24888 -0.55698,-0.79047 -0.30944,-1.21045c0.47118,-0.8032 0.47118,-1.79871 0,-2.6005c-0.24755,-0.42139 -0.10829,-0.96299 0.30944,-1.21187c0.42195,-0.24605 0.95923,-0.10747 1.20396,0.31109c0.79749,1.35752 0.79749,3.04311 0,4.40063c-0.16315,0.27999 -0.45711,0.43412 -0.75811,0.43412zM245.25665,184.05533c-0.1505,0 -0.30661,-0.0396 -0.44586,-0.12303c-0.41773,-0.24888 -0.55698,-0.79047 -0.30943,-1.21045c0.98596,-1.6771 0.98596,-3.76146 0,-5.43715c-0.24755,-0.41998 -0.1083,-0.96298 0.30943,-1.21186c0.41914,-0.24463 0.95642,-0.10747 1.20397,0.31109c1.31367,2.23142 1.31367,5.00585 0,7.23727c-0.16456,0.27999 -0.45712,0.43413 -0.75811,0.43413zM240.37853,184.32004c0,1.0238 -1.20679,1.55973 -1.95927,0.86966l-1.62452,-1.49185c-0.57526,-0.52745 -1.32493,-0.82017 -2.10413,-0.82017h-0.28411c-0.77639,0 -1.40651,-0.6321 -1.40651,-1.41408v-2.913c0,-0.78057 0.63012,-1.41408 1.40651,-1.41408h0.26864c0.7792,0 1.52887,-0.29272 2.10413,-0.82017l1.63998,-1.506c0.75248,-0.69007 1.95927,-0.15413 1.95927,0.86825z" fill="none" fill-rule="evenodd" stroke="#a63fa6" stroke-width="2"/><path d="M242.63078,182.63714c-0.1505,0 -0.30521,-0.03959 -0.44586,-0.12302c-0.41773,-0.24888 -0.55698,-0.79047 -0.30944,-1.21045c0.47118,-0.8032 0.47118,-1.79871 0,-2.6005c-0.24755,-0.42139 -0.10829,-0.96299 0.30944,-1.21187c0.42195,-0.24605 0.95923,-0.10747 1.20396,0.31109c0.79749,1.35752 0.79749,3.04311 0,4.40063c-0.16315,0.27999 -0.45711,0.43412 -0.75811,0.43412zM245.25665,184.05533c-0.1505,0 -0.30661,-0.0396 -0.44586,-0.12303c-0.41773,-0.24888 -0.55698,-0.79047 -0.30943,-1.21045c0.98596,-1.6771 0.98596,-3.76146 0,-5.43715c-0.24755,-0.41998 -0.1083,-0.96298 0.30943,-1.21186c0.41914,-0.24463 0.95642,-0.10747 1.20397,0.31109c1.31367,2.23142 1.31367,5.00585 0,7.23727c-0.16456,0.27999 -0.45712,0.43413 -0.75811,0.43413zM240.37853,175.67859v8.64145c0,1.0238 -1.20679,1.55973 -1.95927,0.86966l-1.62452,-1.49185c-0.57526,-0.52745 -1.32493,-0.82017 -2.10413,-0.82017h-0.28411c-0.77639,0 -1.40651,-0.6321 -1.40651,-1.41408v-2.913c0,-0.78057 0.63012,-1.41408 1.40651,-1.41408h0.26864c0.7792,0 1.52887,-0.29272 2.10413,-0.82017l1.63998,-1.506c0.75248,-0.69007 1.95927,-0.15413 1.95927,0.86825z" fill="#e6e6e6" fill-rule="evenodd" stroke="none" stroke-width="1"/><path d="M239.32854,176.00851v5.99411c0,0.86537 -1.03505,1.31837 -1.68045,0.73508l-1.39334,-1.26101c-0.49339,-0.44584 -1.13638,-0.69326 -1.8047,-0.69326h-0.24368c-0.66591,0 -1.20636,-0.53429 -1.20636,-1.19526v-1.15209c0,-0.65979 0.59045,-1.24527 1.25636,-1.24527l0.38041,-0.05c0.66832,0 1.21131,-0.09742 1.7047,-0.54325l1.60661,-1.37296c0.6454,-0.58329 1.38045,-0.08028 1.38045,0.7839z" fill="#ffffff" fill-rule="evenodd" stroke="none" stroke-width="1"/><path d="M225.79,179.99c0,-7.78722 6.29936,-14.1 14.07,-14.1c7.77065,0 14.07,6.31279 14.07,14.1c0,7.78722 -6.29935,14.1 -14.07,14.1c-7.77065,0 -14.07,-6.31278 -14.07,-14.1z" fill="none" fill-rule="nonzero" stroke="#a63fa6" stroke-width="1.5"/></g></g></svg>