<svg version="1.1" xmlns="http://www.w3.org/2000/svg" xmlns:xlink="http://www.w3.org/1999/xlink" width="20" height="20" viewBox="0,0,20,20"><g transform="translate(-229.5,-169.5)"><g data-paper-data="{&quot;isPaintingLayer&quot;:true}" stroke-linejoin="miter" stroke-miterlimit="10" stroke-dasharray="" stroke-dashoffset="0" style="mix-blend-mode: normal"><path d="M240.95755,182.86933l-3.10873,-5.53713" fill="none" fill-rule="nonzero" stroke="#000000" stroke-width="2.5" stroke-linecap="round"/><path d="M236.80288,182.90958l5.33465,-5.54677" data-paper-data="{&quot;index&quot;:null}" fill="none" fill-rule="nonzero" stroke="#000000" stroke-width="2.5" stroke-linecap="round"/><path d="M234.149,172.584c0.50492,0.22187 0.73488,0.81065 0.514,1.316c-0.77028,1.76631 -1.16627,3.67304 -1.163,5.6c0,1.993 0.416,3.886 1.164,5.6c0.20091,0.50158 -0.03294,1.07204 -0.52811,1.28828c-0.49517,0.21623 -1.07255,0.00002 -1.30389,-0.48828c-0.8811,-2.01849 -1.33463,-4.19758 -1.332,-6.4c0,-2.274 0.475,-4.44 1.332,-6.4c0.10618,-0.2431 0.30461,-0.43406 0.5516,-0.53083c0.247,-0.09677 0.52233,-0.09144 0.7654,0.01483zM244.334,173.9c-0.21743,-0.50544 0.01431,-1.09159 0.5186,-1.31168c0.50429,-0.22009 1.09165,0.00856 1.3144,0.51168c0.88145,2.01842 1.33531,4.19751 1.333,6.4c0,2.274 -0.475,4.44 -1.332,6.4c-0.13557,0.33845 -0.4446,0.5763 -0.80648,0.62071c-0.36188,0.04441 -0.71925,-0.11164 -0.93264,-0.40727c-0.21339,-0.29562 -0.24898,-0.68396 -0.09288,-1.01344c0.77065,-1.76623 1.16698,-3.67297 1.164,-5.6c0,-1.993 -0.416,-3.886 -1.165,-5.6z" fill="#ffffff" fill-rule="evenodd" stroke="#000000" stroke-width="0.5" stroke-linecap="butt"/><path d="M229.5,169.5h20v20h-20z" fill-opacity="0" fill="#000000" fill-rule="nonzero" stroke="#000000" stroke-width="0" stroke-linecap="butt"/><path d="M240.95755,182.86933l-3.10873,-5.53713" fill="none" fill-rule="nonzero" stroke="#ffffff" stroke-width="1.5" stroke-linecap="round"/><path d="M236.80288,182.90958l5.33465,-5.54677" data-paper-data="{&quot;index&quot;:null}" fill="none" fill-rule="nonzero" stroke="#ffffff" stroke-width="1.5" stroke-linecap="round"/></g></g></svg>