<svg version="1.1" xmlns="http://www.w3.org/2000/svg" xmlns:xlink="http://www.w3.org/1999/xlink" width="28.72901" height="31.43871" viewBox="0,0,28.72901,31.43871"><g transform="translate(-225.6355,-164.28065)"><g data-paper-data="{&quot;isPaintingLayer&quot;:true}" stroke-miterlimit="10" stroke-dasharray="" stroke-dashoffset="0" style="mix-blend-mode: normal"><path d="M253.91451,168.80612v14.96888c-0.00211,0.29241 -0.13426,0.56871 -0.36057,0.75391c-4.13219,3.37797 -10.07187,3.37797 -14.20405,0c-1.6231,-1.32419 -3.65245,-2.0495 -5.74717,-2.05413c-1.92126,0.00232 -3.79075,0.62293 -5.33198,1.77004v9.93191c0,0.60343 -0.48918,1.09262 -1.09262,1.09262c-0.60343,0 -1.09262,-0.48918 -1.09262,-1.09262v-25.37061c-0.00176,-0.4261 0.26531,-0.80701 0.66651,-0.95058c4.12845,-3.19396 9.91595,-3.11239 13.95274,0.19667c3.34827,2.72121 8.14608,2.72121 11.49435,0c0.30983,-0.24463 0.72753,-0.3031 1.09262,-0.15297c0.37309,0.14702 0.61953,0.50587 0.62279,0.90687z" fill="#a338ff" fill-rule="nonzero" stroke="#6229e1" stroke-width="0.9" stroke-linecap="round" stroke-linejoin="round"/><path d="M227.11256,195.19286c-0.56724,0 -1.02706,-0.45983 -1.02706,-1.02706v-28.4081c0,-0.56724 0.45983,-1.02706 1.02706,-1.02706v0c0.56724,0 1.02706,0.45983 1.02706,1.02706v28.4081c0,0.56724 -0.45983,1.02706 -1.02706,1.02706z" fill="#6229e1" fill-rule="nonzero" stroke="#6229e1" stroke-width="0.9" stroke-linecap="round" stroke-linejoin="round"/><path d="M242.85829,171.3428c0.05557,-0.03468 0.14819,0.20073 0.16671,0.27009l0.48164,1.91004c0,0 1.18555,1.19667 1.53751,1.76893c0.59278,0.95377 0.6113,1.84318 0.6113,1.84318c0,0 1.31523,0.20061 1.53751,1.18906c0.22228,0.98845 -0.59278,2.47966 -4.07534,3.1213c-3.48256,0.64162 -6.27972,-0.51537 -7.59495,-2.49228c-1.31523,-1.97691 0.75949,-4.44436 0.64835,-4.30564l-0.389,-3.1586c-0.01852,-0.06937 0.07409,-0.06687 0.14819,-0.03219l2.24143,1.36997c0,0 0.83359,-0.13126 1.70422,-0.16594c0.51868,-0.03468 0.96326,0 1.38932,0.06937z" fill-opacity="0.72575" fill="#6229e1" fill-rule="evenodd" stroke="none" stroke-width="0" stroke-linecap="butt" stroke-linejoin="miter"/></g></g></svg>